<svg class="diagram-root" style="background: #f5f6f6" xmlns="http://www.w3.org/2000/svg" xmlns:xlink="http://www.w3.org/1999/xlink"><style>.diagram-root { font-family: "Helvetica Neue", sans-serif; font-size: 12px; } .t { overflow: visible; } .t-bg { y: 40; fill: #fff;   } .th { fill: #005aa0;   } .tht { fill: #fff; font-size: 14px;  } .tf { fill: #323c46; overflow: visible; } .tf.pk { fill: #005aa0; font-weight: bold; } .tf.fk { font-weight: bold; } .ty { fill: #adb1b5; font-weight: normal; text-anchor: end; } .r { fill: transparent; stroke: #c3c3c3; stroke-width: 1; } .l { stroke: 1; } .i { fill: #c2c7ce; stroke: #c2c7ce; } .i.ix { fill: #afb3b6; stroke: #000; } .fa { fill: transparent; overflow: visible; } .fa .bg.hover { fill: #f7f7f7; } .c { cy: 12; r: 4; stroke: #d2d2dc; fill: #d2d2dc; } .hr { fill: transparent; stroke: #323c46; stroke-opacity: 0.035; stroke-width: 13; } .dc { stroke: #fa5a3c; fill: #fa5a3c; } .x { stroke: white; stroke-width: 1; } .hl .th { fill: #1b9bff; } .hl .tht {  } .fhl .bg { fill: #e7f4ff; } .fhls .bg {  } .r.hl { stroke: #1b9bff; } .dim { opacity: 0.25; }</style><g class="drawing-wrapper" transform="translate(408.88888888888863, 56.44) scale(1,1)"><g class="rs"><path d="M 46.15 414.22 m -1, 0 a 1,1 0 1,0 2,0 a 1,1 0 1,0 -2,0 M 46.15 414.22 m -0.5, 0 a 0.5,0.5 0 1,0 1,0 a 0.5,0.5 0 1,0 -1,0  M46.15 414.22 L46.15 414.22 58.15 414.22 M 46.15 420.22 m -1, 0 a 1,1 0 1,0 2,0 a 1,1 0 1,0 -2,0 M 46.15 420.22 m -0.5, 0 a 0.5,0.5 0 1,0 1,0 a 0.5,0.5 0 1,0 -1,0  M46.15 420.22 L46.15 420.22 53.15 414.22 46.15 408.22 M 46.15 408.22 m -1, 0 a 1,1 0 1,0 2,0 a 1,1 0 1,0 -2,0 M 46.15 408.22 m -0.5, 0 a 0.5,0.5 0 1,0 1,0 a 0.5,0.5 0 1,0 -1,0  M58.15 414.22 Q 86.34 414.22, 114.52 443.95 T 170.89 473.67 M 182.89 473.67 m -1, 0 a 1,1 0 1,0 2,0 a 1,1 0 1,0 -2,0 M 182.89 473.67 m -0.5, 0 a 0.5,0.5 0 1,0 1,0 a 0.5,0.5 0 1,0 -1,0  M182.89 473.67 L182.89 473.67 170.89 473.67 M176.89 479.67 L176.89 479.67 176.89 467.67" id="h1981091798" class="r"></path><path d="M 170 280.44 m -1, 0 a 1,1 0 1,0 2,0 a 1,1 0 1,0 -2,0 M 170 280.44 m -0.5, 0 a 0.5,0.5 0 1,0 1,0 a 0.5,0.5 0 1,0 -1,0  M170 280.44 L170 280.44 158 280.44 M 170 286.44 m -1, 0 a 1,1 0 1,0 2,0 a 1,1 0 1,0 -2,0 M 170 286.44 m -0.5, 0 a 0.5,0.5 0 1,0 1,0 a 0.5,0.5 0 1,0 -1,0  M170 286.44 L170 286.44 163 280.44 170 274.44 M 170 274.44 m -1, 0 a 1,1 0 1,0 2,0 a 1,1 0 1,0 -2,0 M 170 274.44 m -0.5, 0 a 0.5,0.5 0 1,0 1,0 a 0.5,0.5 0 1,0 -1,0  M158 280.44 Q 133.04 280.44, 108.08 309.83 T 58.15 339.22 M 46.15 339.22 m -1, 0 a 1,1 0 1,0 2,0 a 1,1 0 1,0 -2,0 M 46.15 339.22 m -0.5, 0 a 0.5,0.5 0 1,0 1,0 a 0.5,0.5 0 1,0 -1,0  M46.15 339.22 L46.15 339.22 58.15 339.22 M52.15 345.22 L52.15 345.22 52.15 333.22" id="h2393061165" class="r"></path><path d="M 336.73 305.44 m -1, 0 a 1,1 0 1,0 2,0 a 1,1 0 1,0 -2,0 M 336.73 305.44 m -0.5, 0 a 0.5,0.5 0 1,0 1,0 a 0.5,0.5 0 1,0 -1,0  M336.73 305.44 L336.73 305.44 348.73 305.44 M 336.73 311.44 m -1, 0 a 1,1 0 1,0 2,0 a 1,1 0 1,0 -2,0 M 336.73 311.44 m -0.5, 0 a 0.5,0.5 0 1,0 1,0 a 0.5,0.5 0 1,0 -1,0  M336.73 311.44 L336.73 311.44 343.73 305.44 336.73 299.44 M 336.73 299.44 m -1, 0 a 1,1 0 1,0 2,0 a 1,1 0 1,0 -2,0 M 336.73 299.44 m -0.5, 0 a 0.5,0.5 0 1,0 1,0 a 0.5,0.5 0 1,0 -1,0  M348.73 305.44 Q 365.5 305.44, 382.26 280.06 T 415.78 254.67 M 427.78 254.67 m -1, 0 a 1,1 0 1,0 2,0 a 1,1 0 1,0 -2,0 M 427.78 254.67 m -0.5, 0 a 0.5,0.5 0 1,0 1,0 a 0.5,0.5 0 1,0 -1,0  M427.78 254.67 L427.78 254.67 415.78 254.67 M421.78 260.66999999999996 L421.78 260.66999999999996 421.78 248.67" id="h515368828" class="r"></path><path d="M -232.85 368 m -1, 0 a 1,1 0 1,0 2,0 a 1,1 0 1,0 -2,0 M -232.85 368 m -0.5, 0 a 0.5,0.5 0 1,0 1,0 a 0.5,0.5 0 1,0 -1,0  M-232.85 368 L-232.85 368 -220.85 368 M -232.85 374 m -1, 0 a 1,1 0 1,0 2,0 a 1,1 0 1,0 -2,0 M -232.85 374 m -0.5, 0 a 0.5,0.5 0 1,0 1,0 a 0.5,0.5 0 1,0 -1,0  M-232.85 374 L-232.85 374 -225.85 368 -232.85 362 M -232.85 362 m -1, 0 a 1,1 0 1,0 2,0 a 1,1 0 1,0 -2,0 M -232.85 362 m -0.5, 0 a 0.5,0.5 0 1,0 1,0 a 0.5,0.5 0 1,0 -1,0  M-220.85 368 Q -192.97 368, -165.09 200.62 T -109.34 33.230000000000004 M -97.34 33.230000000000004 m -1, 0 a 1,1 0 1,0 2,0 a 1,1 0 1,0 -2,0 M -97.34 33.230000000000004 m -0.5, 0 a 0.5,0.5 0 1,0 1,0 a 0.5,0.5 0 1,0 -1,0  M-97.34 33.230000000000004 L-97.34 33.230000000000004 -109.34 33.230000000000004 M-103.34 39.230000000000004 L-103.34 39.230000000000004 -103.34 27.230000000000004" id="h2168725292" class="r"></path><path d="M -232.85 393 m -1, 0 a 1,1 0 1,0 2,0 a 1,1 0 1,0 -2,0 M -232.85 393 m -0.5, 0 a 0.5,0.5 0 1,0 1,0 a 0.5,0.5 0 1,0 -1,0  M-232.85 393 L-232.85 393 -220.85 393 M -232.85 399 m -1, 0 a 1,1 0 1,0 2,0 a 1,1 0 1,0 -2,0 M -232.85 399 m -0.5, 0 a 0.5,0.5 0 1,0 1,0 a 0.5,0.5 0 1,0 -1,0  M-232.85 399 L-232.85 399 -225.85 393 -232.85 387 M -232.85 387 m -1, 0 a 1,1 0 1,0 2,0 a 1,1 0 1,0 -2,0 M -232.85 387 m -0.5, 0 a 0.5,0.5 0 1,0 1,0 a 0.5,0.5 0 1,0 -1,0  M-220.85 393 Q -193.11 393, -165.37 366.11 T -109.89 339.22 M -97.89 339.22 m -1, 0 a 1,1 0 1,0 2,0 a 1,1 0 1,0 -2,0 M -97.89 339.22 m -0.5, 0 a 0.5,0.5 0 1,0 1,0 a 0.5,0.5 0 1,0 -1,0  M-97.89 339.22 L-97.89 339.22 -109.89 339.22 M-103.89 345.22 L-103.89 345.22 -103.89 333.22" id="h933295453" class="r"></path><path d="M 164.11 55.56 m -1, 0 a 1,1 0 1,0 2,0 a 1,1 0 1,0 -2,0 M 164.11 55.56 m -0.5, 0 a 0.5,0.5 0 1,0 1,0 a 0.5,0.5 0 1,0 -1,0  M164.11 55.56 L164.11 55.56 152.11 55.56 M 164.11 61.56 m -1, 0 a 1,1 0 1,0 2,0 a 1,1 0 1,0 -2,0 M 164.11 61.56 m -0.5, 0 a 0.5,0.5 0 1,0 1,0 a 0.5,0.5 0 1,0 -1,0  M164.11 61.56 L164.11 61.56 157.11 55.56 164.11 49.56 M 164.11 49.56 m -1, 0 a 1,1 0 1,0 2,0 a 1,1 0 1,0 -2,0 M 164.11 49.56 m -0.5, 0 a 0.5,0.5 0 1,0 1,0 a 0.5,0.5 0 1,0 -1,0  M152.11 55.56 Q 126.26 55.56, 100.41 44.4 T 48.7 33.230000000000004 M 36.7 33.230000000000004 m -1, 0 a 1,1 0 1,0 2,0 a 1,1 0 1,0 -2,0 M 36.7 33.230000000000004 m -0.5, 0 a 0.5,0.5 0 1,0 1,0 a 0.5,0.5 0 1,0 -1,0  M36.7 33.230000000000004 L36.7 33.230000000000004 48.7 33.230000000000004 M42.7 39.230000000000004 L42.7 39.230000000000004 42.7 27.230000000000004" id="h1511745399" class="r"></path><path d="M 164.11 80.56 m -1, 0 a 1,1 0 1,0 2,0 a 1,1 0 1,0 -2,0 M 164.11 80.56 m -0.5, 0 a 0.5,0.5 0 1,0 1,0 a 0.5,0.5 0 1,0 -1,0  M164.11 80.56 L164.11 80.56 152.11 80.56 M 164.11 86.56 m -1, 0 a 1,1 0 1,0 2,0 a 1,1 0 1,0 -2,0 M 164.11 86.56 m -0.5, 0 a 0.5,0.5 0 1,0 1,0 a 0.5,0.5 0 1,0 -1,0  M164.11 86.56 L164.11 86.56 157.11 80.56 164.11 74.56 M 164.11 74.56 m -1, 0 a 1,1 0 1,0 2,0 a 1,1 0 1,0 -2,0 M 164.11 74.56 m -0.5, 0 a 0.5,0.5 0 1,0 1,0 a 0.5,0.5 0 1,0 -1,0  M152.11 80.56 Q 126.26 80.56, 100.41 56.9 T 48.7 33.230000000000004 M 36.7 33.230000000000004 m -1, 0 a 1,1 0 1,0 2,0 a 1,1 0 1,0 -2,0 M 36.7 33.230000000000004 m -0.5, 0 a 0.5,0.5 0 1,0 1,0 a 0.5,0.5 0 1,0 -1,0  M36.7 33.230000000000004 L36.7 33.230000000000004 48.7 33.230000000000004 M42.7 39.230000000000004 L42.7 39.230000000000004 42.7 27.230000000000004" id="h2947911131" class="r"></path></g><g class="hrs"></g><g class="ts"><svg width="144.04" height="175" x="-97.89" y="282.22" id="h4200617828" class="t"><rect height="40" width="144.04" class="th"></rect><text x="13" y="25" class="tht">film</text><rect height="135" width="144.04" class="t-bg" y="40"></rect><text x="13" y="61" class="tf pk">film_id<tspan x="131.04" class="ty">bigint</tspan></text><path d="M7,14A2,2 0 0,1 5,12A2,2 0 0,1 7,10A2,2 0 0,1 9,12A2,2 0 0,1 7,14M12.65,10C11.83,7.67 9.61,6 7, 6A6, 6 0 0, 0 1, 12A6, 6 0 0, 0 7, 18C9.61, 18 11.83, 16.33 12.65, 14H17V18H21V14H23V10H12.65Z" class="i pk" transform="translate(82.35249999999999, 48) scale(0.65)"></path><text x="13" y="86" class="tf">name<tspan x="131.04" class="ty">varchar</tspan></text><text x="13" y="111" class="tf">release_date<tspan x="131.04" class="ty">date</tspan></text><text x="13" y="136" class="tf fk">rating_id<tspan x="131.04" class="ty">int</tspan></text><text x="13" y="161" class="tf">description<tspan x="131.04" class="ty">varchar</tspan></text></svg><svg width="141.39" height="100" x="427.78" y="197.67" id="h1304626560" class="t"><rect height="40" width="141.39" class="th"></rect><text x="13" y="25" class="tht">genre</text><rect height="60" width="141.39" class="t-bg" y="40"></rect><text x="13" y="61" class="tf pk">genre_id<tspan x="128.39" class="ty">bigint</tspan></text><path d="M7,14A2,2 0 0,1 5,12A2,2 0 0,1 7,10A2,2 0 0,1 9,12A2,2 0 0,1 7,14M12.65,10C11.83,7.67 9.61,6 7, 6A6, 6 0 0, 0 1, 12A6, 6 0 0, 0 7, 18C9.61, 18 11.83, 16.33 12.65, 14H17V18H21V14H23V10H12.65Z" class="i pk" transform="translate(79.70249999999999, 48) scale(0.65)"></path><text x="13" y="86" class="tf">name<tspan x="128.39" class="ty">varchar</tspan></text></svg><svg width="166.73" height="125" x="170" y="198.44" id="h1016190631" class="t"><rect height="40" width="166.73" class="th"></rect><text x="13" y="25" class="tht">film_genre</text><rect height="85" width="166.73" class="t-bg" y="40"></rect><text x="13" y="61" class="tf pk">film_genre_id<tspan x="153.73" class="ty">bigint</tspan></text><path d="M7,14A2,2 0 0,1 5,12A2,2 0 0,1 7,10A2,2 0 0,1 9,12A2,2 0 0,1 7,14M12.65,10C11.83,7.67 9.61,6 7, 6A6, 6 0 0, 0 1, 12A6, 6 0 0, 0 7, 18C9.61, 18 11.83, 16.33 12.65, 14H17V18H21V14H23V10H12.65Z" class="i pk" transform="translate(105.04249999999999, 48) scale(0.65)"></path><text x="13" y="86" class="tf fk">film_id<tspan x="153.73" class="ty">bigint</tspan></text><text x="13" y="111" class="tf fk">genre_id<tspan x="153.73" class="ty">bigint</tspan></text></svg><svg width="144.04" height="125" x="182.89" y="416.67" id="h2037942479" class="t"><rect height="40" width="144.04" class="th"></rect><text x="13" y="25" class="tht">rating</text><rect height="85" width="144.04" class="t-bg" y="40"></rect><text x="13" y="61" class="tf pk">rating_id<tspan x="131.04" class="ty">bigint</tspan></text><path d="M7,14A2,2 0 0,1 5,12A2,2 0 0,1 7,10A2,2 0 0,1 9,12A2,2 0 0,1 7,14M12.65,10C11.83,7.67 9.61,6 7, 6A6, 6 0 0, 0 1, 12A6, 6 0 0, 0 7, 18C9.61, 18 11.83, 16.33 12.65, 14H17V18H21V14H23V10H12.65Z" class="i pk" transform="translate(82.35249999999999, 48) scale(0.65)"></path><text x="13" y="86" class="tf">name<tspan x="131.04" class="ty">varchar</tspan></text><text x="13" y="111" class="tf">description<tspan x="131.04" class="ty">varchar</tspan></text></svg><svg width="154.04" height="125" x="-386.89" y="286" id="h1776118718" class="t"><rect height="40" width="154.04" class="th"></rect><text x="13" y="25" class="tht">film_like</text><rect height="85" width="154.04" class="t-bg" y="40"></rect><text x="13" y="61" class="tf pk">film_like_id<tspan x="141.04" class="ty">bigint</tspan></text><path d="M7,14A2,2 0 0,1 5,12A2,2 0 0,1 7,10A2,2 0 0,1 9,12A2,2 0 0,1 7,14M12.65,10C11.83,7.67 9.61,6 7, 6A6, 6 0 0, 0 1, 12A6, 6 0 0, 0 7, 18C9.61, 18 11.83, 16.33 12.65, 14H17V18H21V14H23V10H12.65Z" class="i pk" transform="translate(92.35249999999999, 48) scale(0.65)"></path><text x="13" y="86" class="tf fk">user_id<tspan x="141.04" class="ty">bigint</tspan></text><text x="13" y="111" class="tf fk">film_id<tspan x="141.04" class="ty">bigint</tspan></text></svg><svg width="134.04" height="175" x="-97.34" y="-23.77" id="h2728321744" class="t"><rect height="40" width="134.04" class="th"></rect><text x="13" y="25" class="tht">user</text><rect height="135" width="134.04" class="t-bg" y="40"></rect><text x="13" y="61" class="tf pk">user_id<tspan x="121.03999999999999" class="ty">bigint</tspan></text><path d="M7,14A2,2 0 0,1 5,12A2,2 0 0,1 7,10A2,2 0 0,1 9,12A2,2 0 0,1 7,14M12.65,10C11.83,7.67 9.61,6 7, 6A6, 6 0 0, 0 1, 12A6, 6 0 0, 0 7, 18C9.61, 18 11.83, 16.33 12.65, 14H17V18H21V14H23V10H12.65Z" class="i pk" transform="translate(72.35249999999999, 48) scale(0.65)"></path><text x="13" y="86" class="tf">email<tspan x="121.03999999999999" class="ty">varchar</tspan></text><text x="13" y="111" class="tf">login<tspan x="121.03999999999999" class="ty">varchar</tspan></text><text x="13" y="136" class="tf">name<tspan x="121.03999999999999" class="ty">varchar</tspan></text><text x="13" y="161" class="tf">birthday<tspan x="121.03999999999999" class="ty">data</tspan></text></svg><svg width="162.73" height="150" x="164.11" y="-26.44" id="h1476665440" class="t"><rect height="40" width="162.73" class="th"></rect><text x="13" y="25" class="tht">friendship</text><rect height="110" width="162.73" class="t-bg" y="40"></rect><text x="13" y="61" class="tf pk">friendship_id<tspan x="149.73" class="ty">bigint</tspan></text><path d="M7,14A2,2 0 0,1 5,12A2,2 0 0,1 7,10A2,2 0 0,1 9,12A2,2 0 0,1 7,14M12.65,10C11.83,7.67 9.61,6 7, 6A6, 6 0 0, 0 1, 12A6, 6 0 0, 0 7, 18C9.61, 18 11.83, 16.33 12.65, 14H17V18H21V14H23V10H12.65Z" class="i pk" transform="translate(101.04249999999999, 48) scale(0.65)"></path><text x="13" y="86" class="tf fk">sender_id<tspan x="149.73" class="ty">bigint</tspan></text><text x="13" y="111" class="tf fk">recipient_id<tspan x="149.73" class="ty">bigint</tspan></text><text x="13" y="136" class="tf">status<tspan x="149.73" class="ty">boolean</tspan></text></svg></g></g><text class="qdbd-link" x="10" y="20">www.quickdatabasediagrams.com</text></svg>